<svg xmlns="http://www.w3.org/2000/svg" xmlns:xlink="http://www.w3.org/1999/xlink" width="100" height="100" viewBox="0 0 100 100"><g><g transform="translate(50 50) scale(0.69 0.69) rotate(0) translate(-50 -50)" style="fill:#44475a"><svg fill="#44475a" xmlns="http://www.w3.org/2000/svg" xmlns:xlink="http://www.w3.org/1999/xlink" version="1.1" x="0px" y="0px" viewBox="0 0 100 100" enable-background="new 0 0 100 100" xml:space="preserve"><path d="M92.473,43.046l-6.078-16.392c-0.182-0.495-0.723-0.754-1.223-0.59l-13.445,4.42c-0.218,0.071-0.404,0.22-0.525,0.415  l-6.44,10.39l-1.146-25.207c-0.014-0.327-0.19-0.626-0.472-0.794L46.015,4.975c-0.401-0.241-0.919-0.167-1.232,0.184l-11.421,12.71  c-0.218,0.24-0.301,0.573-0.223,0.889l4.673,18.863h-6.301c-0.541,0-0.979,0.438-0.979,0.979v8.156l-6.374-7.677  c-0.214-0.259-0.543-0.388-0.883-0.345L9.645,40.574c-0.466,0.064-0.821,0.449-0.847,0.92L7.879,59.177  c-0.013,0.248,0.069,0.491,0.229,0.681l16.625,19.698l-1.724,7.066c-0.067,0.276-0.011,0.569,0.154,0.8  c0.165,0.233,0.422,0.381,0.705,0.408l11.545,1.081l8.824,5.764c0.16,0.104,0.347,0.159,0.535,0.159  c0.076,0,0.153-0.009,0.229-0.028l8.139-1.968l7.405,1.963c0.213,0.059,0.439,0.039,0.642-0.048l22.84-9.947  c0.241-0.105,0.431-0.304,0.524-0.551c0.093-0.246,0.083-0.521-0.028-0.759L79.735,73.21l12.718-29.436  C92.554,43.544,92.561,43.283,92.473,43.046z M89.714,41.233l-8.026-6.62l3.379-5.914L89.714,41.233z M80.838,34.128l-6.577-2.417  l9.799-3.221L80.838,34.128z M72.676,32.231l0.086-0.026l7.715,2.831l-2.792,11.243l-14.043,2.93l0.552-3.329L72.676,32.231z   M40.094,89.632L28.587,66.044l8.729,4.481l6.391,21.466L40.094,89.632z M34.812,55.609l2.275,13.698l-8.855-4.547L34.812,55.609z   M32.489,40.934l4.077,6.081l-4.077,1.554V40.934z M32.464,49.624l4.707-1.793l7.555,8.413l-9.333-2.308l-2.993-4.086  C32.43,49.779,32.45,49.703,32.464,49.624z M39.256,40.114l6.261,12.882l0.303,3.002l-7.98-8.881L39.256,40.114z M51.131,23.795  L46.515,7.56l14.805,8.914L51.131,23.795z M50.385,24.957l0.754,12.015L35.826,20.05L50.385,24.957z M61.717,17.391l0.161,3.545  l-9.772,15.835l-0.748-11.933L61.717,17.391z M63.045,45.77l-3.77,8.685l-7.01-16.078l9.69-15.705L63.045,45.77z M68.807,71.225  l-9.164-3l1.308-3.38l8.292,2.515L68.807,71.225z M51.504,73.714l2.407-4.695h4.57l-0.479,8.242L51.504,73.714z M59.682,65.412  l-1.016,2.628h-3.309L59.682,65.412z M59.451,69.192l8.577,2.807l-9.041,5.188L59.451,69.192z M61.21,63.902l2.261-13.658  l13.562-2.828L65.442,65.185L61.21,63.902z M60.211,63.943l-2.254,1.372l1.788-9.487l2.925-6.738L60.211,63.943z M58.769,55.739  l-1.936,10.259l-2.784,1.692l-1.672-26.608L58.769,55.739z M50.842,72.863l-0.482-3.248c0,0-0.001-0.002-0.001-0.003l-0.684-4.609  c-0.001-0.007-0.006-0.013-0.008-0.02c-0.006-0.032-0.02-0.062-0.032-0.09c-0.011-0.031-0.022-0.062-0.041-0.087  c-0.005-0.009-0.006-0.018-0.012-0.025c-0.014-0.018-0.032-0.026-0.045-0.041c-0.018-0.017-0.029-0.039-0.05-0.055l-1.963-1.492  l-0.77-7.651l6.31,12.98L50.842,72.863z M46.461,62.385l-9.178-6.972l8.692,2.148L46.461,62.385z M48.382,65.074l-7.178,5.413  l-3.05-0.704l-2.369-14.28L48.382,65.074z M40.884,71.417l2.356,15.584L38.43,70.852L40.884,71.417z M41.845,71.23l6.984-5.269  l0.553,3.73l-4.529,21.421L41.845,71.23z M49.796,72.47l2.745,18.5l-7.019,1.697L49.796,72.47z M51.102,74.608l6.896,3.764  l2.127,14.294l-6.604-1.751L51.102,74.608z M58.979,78.318l9.651-5.538l-1.969,17.453l-5.55,2.419L58.979,78.318z M71.204,76.443  l7.518,8.539l-10.807,4.706L71.204,76.443z M70.483,75.285c-0.001,0.002-0.003,0.003-0.003,0.005c-0.001,0.002,0,0.004,0,0.006  l-2.105,8.481l1.887-16.714c0.025-0.233-0.119-0.454-0.345-0.522l-3.5-1.061l10.496-16.09L70.483,75.285z M45.439,7.354  l4.688,16.485l-14.965-5.045l-0.001-0.005L45.439,7.354z M35.84,21.524L51.237,38.54l1.731,27.544L40.084,39.581L35.84,21.524z   M38.365,39.577l-1.301,6.432l-4.31-6.432H38.365z M34.497,54.37l-4.973,6.917l-12.303-9.198l6.018-11.055L34.497,54.37z   M10.638,43.807l5.33,8.354l-6.081,6.079L10.638,43.807z M10.889,42.382l11.335-1.531l-5.667,10.416L10.889,42.382z M10.203,59.307  l6.268-6.267l17.584,32.799c0,0-7.316-6.94-7.507-7.165L10.203,59.307z M26.501,80.562l7.144,6.219l-8.466-0.793L26.501,80.562z   M35.838,86.985l-0.062-0.006L18.061,53.938l10.894,8.145l-1.848,2.568c-0.006,0.009-0.005,0.021-0.011,0.029  c-0.008,0.013-0.021,0.021-0.027,0.034c-0.026,0.054-0.04,0.109-0.047,0.168c-0.001,0.006-0.004,0.011-0.005,0.017  c-0.007,0.079,0.013,0.155,0.042,0.227c0.004,0.009,0.001,0.018,0.005,0.026l11.434,23.438  C38.497,88.589,35.996,87.001,35.838,86.985z M82.327,83.412l-2.664,1.161l-7.854-8.92l5.991-1.964L82.327,83.412z M77.85,72.643  l-6.207,2.035l9.703-39.077l9.046,7.46l0.11,0.299L77.85,72.643z"></path></svg></g></g></svg>